# xmcd
#
# Track frame offsets:
#	225
#	14414
#	30368
#	40199
#	56457
#	65207
#	76416
#	86857
#	94860
#	114064
#	131164
#	149275
#	163186
#	177961
#
# Disc length: 2535 seconds
#
# Revision: 0
# Processed by: cddbd v1.5.1PL2 Copyright (c) Steve Scherf et al.
# Submitted via: audiograbber 1.83.01
#
DISCID=bb09e40e
DTITLE=Various Artist - Live at Gilley's - Volume 2
DYEAR=1900
DGENRE=Country
TTITLE0=Freddy Fender - Before The Next Teardrop Falls
TTITLE1=The Oak Ridge Boys - Love Song
TTITLE2=Faron YOung - Hello Walls
TTITLE3=Mickey Gilley - Stand By Me
TTITLE4=Johnny Lee - Pickin' Up Strangers
TTITLE5=Lacy J. Dalton - Hard Times
TTITLE6=Willie Nelson - On The Road Again
TTITLE7=Faron Young - Live Fast, Love Hard, Die Young
TTITLE8=Carl Perkins - Blue Suede Shoes
TTITLE9=Razzy Bailey - I Keep Coming Back
TTITLE10=Rita Collidge - One Fine Day
TTITLE11=Moe Bandy - Bandy The Rodeo Clown
TTITLE12=Jerry Lee Lewis - Whole Lotta Shakin' Goin' On
TTITLE13=The Oak Ridge Boys - American Made
EXTD=
EXTT0=
EXTT1=
EXTT2=
EXTT3=
EXTT4=
EXTT5=
EXTT6=
EXTT7=
EXTT8=
EXTT9=
EXTT10=
EXTT11=
EXTT12=
EXTT13=
PLAYORDER=
